<svg width="78" height="96" viewBox="0 0 78 96" fill="none" xmlns="http://www.w3.org/2000/svg">
<g id="Vector" style="mix-blend-mode:difference">
<path d="M7.02 4.71744L2.34 0H73.827C68.51 5.62162 57.486 16.7469 53.898 20.3636C70.278 27.2039 78 43.0467 78 56.688C78 75.9115 62.829 96 39.039 96C16.653 96 0 77.4447 0 56.6486H4.602C4.602 78.0344 22.464 91.3219 39.039 91.3219C56.238 91.3219 73.398 77.3268 73.398 56.688C73.398 34.0442 54.886 24.5307 45.63 22.6044L63.18 4.71744H7.02Z" fill="#F1F1F1"/>
<path d="M56.121 47.0565H36.426L42.0615 37.2285C46.098 37.9754 51.987 39.941 56.121 47.0565Z" fill="#F1F1F1"/>
<path d="M21.918 66.5553H41.613L35.9775 76.3833C31.941 75.6364 26.052 73.6708 21.918 66.5553Z" fill="#F1F1F1"/>
<path d="M55.9455 66.8833L46.098 49.6904L57.3595 49.6959C58.736 53.5931 59.9918 59.7167 55.9455 66.8833Z" fill="#F1F1F1"/>
<path d="M22.0937 46.742L31.9412 63.9348L20.6798 63.9293C19.3032 60.0322 18.0475 53.9085 22.0937 46.742Z" fill="#F1F1F1"/>
<path d="M39.1953 37.0319L29.3477 54.2248L23.7218 44.3912C26.3817 41.241 31.015 37.083 39.1953 37.0319Z" fill="#F1F1F1"/>
<path d="M38.844 76.5933L48.6915 59.4005L54.3175 69.234C51.6575 72.3842 47.0243 76.5423 38.844 76.5933Z" fill="#F1F1F1"/>
<path fill-rule="evenodd" clip-rule="evenodd" d="M44.1095 9.43489H52.104L34.0085 27.7543C34.2314 27.7256 34.46 27.6911 34.7039 27.6543C35.6831 27.5066 36.9085 27.3219 39.0005 27.3219C55.7315 27.3219 68.2505 41.1597 68.2505 56.6486C68.2505 73.0418 55.3025 86.2899 39.0005 86.2899C23.0495 86.2899 9.711 73.6314 9.71146 56.6486C9.71158 52.0491 11.5445 42.5356 19.1495 35.145C25.2335 29.2324 38.3245 15.5414 44.1095 9.43489ZM39 81.6511C52.6127 81.6511 63.648 70.5275 63.648 56.8059C63.648 43.0843 52.6127 31.9607 39 31.9607C25.3873 31.9607 14.352 43.0843 14.352 56.8059C14.352 70.5275 25.3873 81.6511 39 81.6511ZM36.426 47.0565H56.121C51.987 39.941 46.098 37.9754 42.0615 37.2285L36.426 47.0565ZM41.613 66.5553H21.918C26.052 73.6708 31.941 75.6364 35.9775 76.3833L41.613 66.5553ZM46.098 49.6904L55.9455 66.8833C59.9918 59.7167 58.736 53.5931 57.3595 49.6959L46.098 49.6904ZM31.9412 63.9348L22.0937 46.742C18.0475 53.9085 19.3032 60.0322 20.6798 63.9293L31.9412 63.9348ZM29.3477 54.2248L39.1953 37.0319C31.015 37.083 26.3817 41.241 23.7218 44.3912L29.3477 54.2248ZM48.6915 59.4005L38.844 76.5933C47.0243 76.5423 51.6575 72.3842 54.3175 69.234L48.6915 59.4005Z" fill="#F1F1F1"/>
</g>
</svg>
